<?xml version="1.0" standalone="no"?><!DOCTYPE svg PUBLIC "-//W3C//DTD SVG 1.1//EN" "http://www.w3.org/Graphics/SVG/1.1/DTD/svg11.dtd"><svg t="1594458811319" class="icon" viewBox="0 0 1024 1024" version="1.1" xmlns="http://www.w3.org/2000/svg" p-id="724" xmlns:xlink="http://www.w3.org/1999/xlink" width="200" height="200"><defs><style type="text/css"></style></defs><path d="M668.15 214.04375l0 117.58124971c78.46875 51.13125 130.42500029 139.48125029 130.42500029 240.13125 0 158.23125-128.30625 286.51875029-286.57500029 286.51875029-158.23125 0-286.5375-128.28750029-286.5375-286.51875029 0-89.45624971 40.98750029-169.29375029 105.22500029-221.86874971L330.68750029 226.15624971C206.46874971 291.48125029 121.7375 421.6625 121.7375 571.71875029 121.7375 787.24999971 296.48750029 962 512.03750029 962c215.51249971 0 390.22499971-174.75000029 390.22499971-390.28124971C902.24375029 411.70625 805.9625 274.2875 668.15 214.04375z" p-id="725"></path><path d="M569.43125 466.28749971c0 25.21874971-25.70625 45.69374971-57.43125 45.69374971l0 0c-31.68749971 0-57.41250029-20.45625029-57.41250029-45.69374971L454.58749971 107.69374971C454.58749971 82.45625029 480.31250029 62 512 62l0 0c31.725 0 57.43125 20.45625029 57.43125 45.69374971L569.43125 466.28749971z" p-id="726"></path></svg>